,
Brought to you by  http://www.scenetime.com/signup.php
 
 Hottest scene tracker on the net !!!   
 
No fake torrents from scenebalance 
shame on those who comment fake before downloading my torrents

    seed back for speed


 



...................................NFO:.................................................[pre]
      ,LGBBBBBBBBBBBBY                                      .5u                                     
    PBBBUr,.   BBO :YBBO                                    LBBi                                    
  :BB.        :BB     BBB                            :BX                                            
  BB          BBM     qBB:                           BB                                             
  BB0        :BB.     BBB  rBF rBBr  iBBB   7BB8. kuGBBY  ,PBi   vS7,,ii  :8q                       
   BBBB.     BBB     BBB .BBB:rBBB1 BB, B: OB jBB r5BB:LqBZBBY PBB:BBBBB BB:BB                   ,  
    ,;:      BB8NMBBBBU  B OM7B  . BB  BB  BB      FB  :B ,Bk BBr  iB:  BB  BB                  BBU 
            NBB ijYL,     :BBB    OB1UBB   NB7    :BJ    .BB LB5   EB. BB:UBG                   .BX 
            BBX           BBB    YBGYi     .BB    BB    .BB  BB   ;BB BBM21                     ,B. 
           2BB           BBB     BB   Y     BB,  jB ;:  BB   7B, OB0  BB                      ;BB.  
           BBM          ;BB     rBB  BBrU   BB   BBkB  BB NG  BBM5.   BBj                .LGBBBv    
      1ZPMBBBB2FF       BB.     .BBBBj MBBPBB:  BBBr  1BBB2 rB0        FBBBBBBBBBBBBBBBBBBBMr       
      222j7;rvSPP       v.        7i    ,YF:    Fr     r,   7BBBMi        :72k0NENEP27;,            
                                                          7BMNiLBBBBr                               
                                                        NBN.      .BB2                              
                                                       jBB         :Bv                              
                                                        7BBBGjL7LJGB;                               
                                                           :JXNEFji                 

*******************************************************************************
              No.Strings.Attached.2011.480.BRRip.XviD.AC3-PRESTiGE
*******************************************************************************

-------------------------------------------------------------------------------
                              General Information
-------------------------------------------------------------------------------

TiTLE............: No.Strings.Attached.2011.480.BRRip.XviD.AC3-PRESTiGE

iMDB.............: http://www.imdb.com/title/tt1411238/

GENRE............: Comedy | Romance

LANGUAGE.........: English

SOURCE...........: 720p.BluRay.X264-AMIABLE MANY THANKS!!

FiLE SiZE........: 1.86GB

SUBS.............: English Subs (If needed)

DURATiON.........: 1h 47mn 

ENCODED by.......: akosipalos



ViDEO iNFO:

ID                               : 0
Format                           : MPEG-4 Visual
Format profile                   : Advanced Simple@L5
Format settings, BVOP            : Yes
Format settings, QPel            : No
Format settings, GMC             : No warppoints
Format settings, Matrix          : Default (H.263)
Codec ID                         : XVID
Codec ID/Hint                    : XviD
Duration                         : 1h 47mn
Bit rate                         : 2 015 Kbps
Width                            : 720 pixels
Height                           : 304 pixels
Display aspect ratio             : 2.35:1
Frame rate                       : 23.976 fps
Color space                      : YUV
Chroma subsampling               : 4:2:0
Bit depth                        : 8 bits
Scan type                        : Progressive
Bits/(Pixel*Frame)               : 0.384
Stream size                      : 1.52 GiB (82%)
Writing library                  : XviD 1.2.1 (UTC 2008-12-04) 



AUDiO iNFO:

ID                               : 1
Format                           : AC-3
Format/Info                      : Audio Coding 3
Mode extension                   : CM (complete main)
Codec ID                         : 2000
Duration                         : 1h 47mn
Bit rate mode                    : Constant
Bit rate                         : 448 Kbps
Channel(s)                       : 6 channels
Channel positions                : Front: L C R, Side: L R, LFE
Sampling rate                    : 48.0 KHz
Bit depth                        : 16 bits
Stream size                      : 346 MiB (18%)
Alignment                        : Aligned on interleaves
Interleave, duration             : 64 ms (1.53 video frames)
Interleave, preload duration     : 192 ms
Title                            : T2_Audio - English



-------------------------------------------------------------------------------
                                 PLOT:
-------------------------------------------------------------------------------


A guy and girl try to keep their relationship strictly physical, but it's not long before they learn that they want something more.


-------------------------------------------------------------------------------
                                 CAST:
-------------------------------------------------------------------------------


Natalie Portman ... Emma

Ashton Kutcher ... Adam

Kevin Kline ... Alvin

Cary Elwes ... Dr. Metzner

Greta Gerwig ... Patrice

Lake Bell ... Lucy

Olivia Thirlby ... Katie

Ludacris ... Wallace (as Chris 'Ludacris' Bridges)

Jake M. Johnson ... Eli (as Jake Johnson)

Mindy Kaling ... Shira

Talia Balsam ... Sandra Kurtzman

Ophelia Lovibond ... Vanessa

Guy Branum ... Guy

Ben Lawson ... Sam

Jennifer Irwin ... Megan 


-------------------------------------------------------------------------------
                               SCREENS:
-------------------------------------------------------------------------------


[img]http://i824.photobucket.com/albums/zz161/akosipalos/nsa1.png[/img]

[img]http://i824.photobucket.com/albums/zz161/akosipalos/nsa2.png[/img]

[img]http://i824.photobucket.com/albums/zz161/akosipalos/nsa3.png[/img]

[img]http://i824.photobucket.com/albums/zz161/akosipalos/nsa4.png[/img]


-------------------------------------------------------------------------------
                             Release Notes
-------------------------------------------------------------------------------


PRESTiGE - IS LOOKING FOR?: CAMMER'S, AUDIO SUPPLIERS, SYNCER'S, RETAIL
SUPPLIER'S, SILVER'S, SCREENER'S, LINE CAPPER'S

ENCODER'S - ANYTHING AT ALL EMAIL US AT..... prestige@hushmail.me

** ** ** ** ** ** ** ** **

PRESTiGE is the level of respect at which one is regarded by others....RIzE Above Or Sink Below...


-------------------------------------------------------------------------------
                                 GREETZ:
-------------------------------------------------------------------------------


twisted ,bigguy, CTFX, HiTM4N, smelise.paranoid53, mtyy, fifer, akosipalos, DiLLoN, imagine,"the squad" , floridajoe and To All Encoders Past And Present...


-------------------------------------------------------------------------------
Generated with Cool NFO Creator - http://fly.to/coolbeans
-------------------------------------------------------------------------------
[/pre]